<svg xmlns="http://www.w3.org/2000/svg" viewBox="-949 951 100 125"><switch><g><path fill="#ffffff" d="M-899.9 980.6c0-2.6 1.1-5 3-6.6l-41.5 4.9c-1 .1-1.8 1-1.8 2s.8 1.9 1.8 2l38.5 4.6v-6.9z"/><path fill="#ffffff" d="M-862.2 1004.2c-1.9-.3-3.6.5-4.8 1.8-.6-2.4-2.7-4.2-5.3-4.2-1.7 0-3.1.8-4.2 2-.7-2.2-2.8-3.8-5.2-3.8-1.5 0-2.9.6-3.9 1.6v-20.7c0-2.8-2-5.3-4.7-5.6-3.3-.4-6.2 2.2-6.2 5.4v36.8c0 .7-1 1-1.4.4l-6.3-9.6c-1.5-2.3-4.8-2.7-7.3-1.1-2.5 1.7-3.3 4.9-1.9 7.1 0 0 17.8 26.9 17.9 27 3.2 4.5 8.5 7.2 14.1 7.2h6.3c9.5 0 17.3-7.6 17.4-17.1V1009.8c.2-2.8-1.8-5.3-4.5-5.6z"/></g></switch></svg>