<svg xmlns="http://www.w3.org/2000/svg" viewBox="0 0 100 125"><path fill="#ffffff" d="M63.605 17.212h-27.21a1.93 1.93 0 0 0-1.93 1.93v27.211a1.93 1.93 0 0 0 1.93 1.93h27.21a1.93 1.93 0 0 0 1.93-1.93V19.142a1.93 1.93 0 0 0-1.93-1.93zM39.931 36.855L50 26.786l10.07 10.07H39.931zm23.674 14.863h-27.21a1.929 1.929 0 0 0-1.929 1.93v27.211c0 1.065.863 1.929 1.929 1.929h27.211c1.066 0 1.93-.863 1.93-1.929V53.647a1.93 1.93 0 0 0-1.931-1.929zM50 73.882l-10.069-10.07h20.14L50 73.882zM29.141 51.718H1.93A1.93 1.93 0 0 0 0 53.648v27.21a1.93 1.93 0 0 0 1.93 1.931h27.211a1.93 1.93 0 0 0 1.929-1.931v-27.21a1.93 1.93 0 0 0-1.929-1.93zM19.117 77.322L9.047 67.253l10.07-10.069v20.138zM98.07 51.718H70.859a1.93 1.93 0 0 0-1.93 1.93v27.211a1.93 1.93 0 0 0 1.93 1.93H98.07a1.93 1.93 0 0 0 1.93-1.93V53.647a1.929 1.929 0 0 0-1.93-1.929zM81.047 77.322V57.184l10.069 10.069-10.069 10.069z"/></svg>